<svg width="118" height="21" viewBox="0 0 118 21" fill="none" xmlns="http://www.w3.org/2000/svg">
<path d="M40.7113 15.6507V6.70633L40.5353 5.29777H48.7049C49.6557 5.29777 50.3835 5.41515 50.8882 5.64991C51.4047 5.88467 51.7627 6.23681 51.9622 6.70633C52.1618 7.16411 52.2616 7.73927 52.2616 8.43182V12.499C52.2616 13.2033 52.1618 13.7902 51.9622 14.2597C51.7744 14.7175 51.4223 15.0638 50.9058 15.2986C50.4011 15.5333 49.6675 15.6507 48.7049 15.6507H40.7113ZM43.0355 13.9604H48.5641C49.4679 13.9604 49.9257 13.5437 49.9374 12.7103V8.22053C49.9374 7.88013 49.8377 7.59255 49.6381 7.35779C49.4386 7.11129 49.0806 6.98804 48.5641 6.98804H43.0355V13.9604Z" fill="white"/>
<path d="M55.6186 6.65351C55.1843 6.65351 54.8674 6.56547 54.6678 6.3894C54.4683 6.21333 54.3685 5.91988 54.3685 5.50905C54.3685 5.08648 54.4624 4.79303 54.6502 4.6287C54.8497 4.45263 55.1725 4.36459 55.6186 4.36459C56.0646 4.36459 56.3874 4.45263 56.587 4.6287C56.7865 4.79303 56.8863 5.08648 56.8863 5.50905C56.8863 5.90814 56.7865 6.20159 56.587 6.3894C56.3874 6.56547 56.0646 6.65351 55.6186 6.65351ZM54.5446 15.6507V7.76275H56.6926V15.6507H54.5446Z" fill="white"/>
<path d="M64.7865 18.7495C63.4953 18.7495 62.4447 18.7378 61.6348 18.7143C60.8249 18.6908 60.2028 18.6556 59.7685 18.6087C59.3342 18.5617 59.0349 18.503 58.8705 18.4326C58.7179 18.3622 58.6416 18.2859 58.6416 18.2037L59.1698 16.8832C59.3576 16.9419 59.6863 17.0123 60.1558 17.0945C60.6371 17.1884 61.2475 17.2353 61.987 17.2353H64.9978C65.4321 17.2353 65.7373 17.1708 65.9133 17.0417C66.1011 16.9125 66.195 16.6836 66.195 16.355V15.2986C65.6903 15.3925 65.0917 15.4746 64.3991 15.5451C63.7183 15.6155 62.9319 15.6507 62.0398 15.6507H61.1594C60.5725 15.6507 60.1206 15.5744 59.8037 15.4218C59.4868 15.2692 59.2579 15.0755 59.117 14.8408C58.9879 14.606 58.9057 14.3595 58.8705 14.1013C58.847 13.843 58.8353 13.6083 58.8353 13.397V10.0164C58.8353 9.84038 58.847 9.62909 58.8705 9.3826C58.9057 9.12436 58.9879 8.87199 59.117 8.62549C59.2579 8.379 59.4868 8.17358 59.8037 8.00925C60.1324 7.84492 60.5843 7.76275 61.1594 7.76275H62.0574C63.2899 7.76275 64.2465 7.78623 64.9273 7.83318C65.6199 7.88013 66.1246 7.93295 66.4415 7.99164L66.8993 7.76275H68.3431V16.4958C68.3431 16.7071 68.3079 16.9419 68.2375 17.2001C68.1788 17.4584 68.0555 17.7049 67.8677 17.9396C67.6799 18.1744 67.4099 18.368 67.0578 18.5206C66.7056 18.6732 66.242 18.7495 65.6668 18.7495H64.7865ZM61.8285 14.1365H65.6492C65.9192 14.1365 66.0777 14.113 66.1246 14.0661C66.1716 14.0191 66.195 13.8665 66.195 13.6083V9.4002C65.7959 9.37673 65.2912 9.35325 64.6808 9.32977C64.0705 9.29456 63.419 9.27695 62.7265 9.27695H61.8285C61.2651 9.27695 60.9834 9.51171 60.9834 9.98123V13.4322C60.9716 13.9017 61.2533 14.1365 61.8285 14.1365Z" fill="white"/>
<path d="M71.7125 6.65351C71.2782 6.65351 70.9613 6.56547 70.7617 6.3894C70.5622 6.21333 70.4624 5.91988 70.4624 5.50905C70.4624 5.08648 70.5563 4.79303 70.7441 4.6287C70.9437 4.45263 71.2665 4.36459 71.7125 4.36459C72.1586 4.36459 72.4813 4.45263 72.6809 4.6287C72.8804 4.79303 72.9802 5.08648 72.9802 5.50905C72.9802 5.90814 72.8804 6.20159 72.6809 6.3894C72.4813 6.56547 72.1586 6.65351 71.7125 6.65351ZM70.6385 15.6507V7.76275H72.7865V15.6507H70.6385Z" fill="white"/>
<path d="M78.4858 15.6507C77.6524 15.6507 77.001 15.5333 76.5315 15.2986C76.0619 15.0638 75.7333 14.7117 75.5455 14.2421C75.3577 13.7726 75.2638 13.1916 75.2638 12.499V8.57267C75.2638 7.44582 75.5161 6.61829 76.0209 6.09008C76.5256 5.55013 77.3473 5.28016 78.4858 5.28016H83.7856C84.5955 5.28016 85.2117 5.32711 85.6343 5.42102C86.0686 5.50318 86.2858 5.59122 86.2858 5.68512L85.9336 7.1465C85.7341 7.11129 85.1413 7.07608 84.1553 7.04086C83.1811 6.99391 81.7608 6.97043 79.8944 6.97043H78.9965C78.0574 6.97043 77.5879 7.38713 77.5879 8.22053V12.7103C77.5879 13.1094 77.6877 13.4205 77.8872 13.6435C78.0985 13.8548 78.4682 13.9604 78.9965 13.9604H79.7183C81.6668 13.9604 83.1752 13.9428 84.2433 13.9076C85.3232 13.8607 85.9923 13.8137 86.2505 13.7667L86.9724 14.9288C86.9724 14.9875 86.8727 15.0755 86.6731 15.1929C86.4853 15.3103 86.1332 15.4159 85.6167 15.5098C85.1002 15.6037 84.3549 15.6507 83.3806 15.6507H78.4858Z" fill="white"/>
<path d="M90.6502 15.6507C89.7581 15.6507 89.1126 15.4453 88.7135 15.0345C88.3144 14.6119 88.1148 14.0367 88.1148 13.309C88.1148 12.546 88.3202 11.9591 88.7311 11.5483C89.1536 11.1374 89.7934 10.932 90.6502 10.932H91.5482C92.4285 10.932 93.2209 10.9555 93.9251 11.0024C94.6294 11.0494 95.2105 11.0963 95.6682 11.1433V9.98123C95.6682 9.87559 95.6565 9.76995 95.633 9.66431C95.6096 9.54693 95.5391 9.45302 95.4217 9.3826C95.3044 9.31217 95.1048 9.27695 94.8231 9.27695H93.9427C92.6633 9.27695 91.5951 9.30043 90.7383 9.34738C89.8814 9.3826 89.3004 9.41781 88.9952 9.45302L88.8015 8.11489C88.8015 7.95056 89.2475 7.85078 90.1396 7.81557C91.0317 7.78036 92.5225 7.76275 94.6118 7.76275H95.4922C96.0791 7.76275 96.531 7.84492 96.8479 8.00925C97.1648 8.17358 97.3879 8.379 97.517 8.62549C97.6578 8.87199 97.74 9.12436 97.7635 9.3826C97.7987 9.62909 97.8163 9.84038 97.8163 10.0164V15.6507H96.3725L95.6858 15.2986C95.1928 15.3807 94.6001 15.4629 93.9075 15.5451C93.215 15.6155 92.4227 15.6507 91.5306 15.6507H90.6502ZM91.108 14.1365H95.14C95.3983 14.1365 95.5509 14.113 95.5978 14.0661C95.6448 14.0191 95.6682 13.8724 95.6682 13.6259V12.2701H91.108C90.7911 12.2701 90.5681 12.3464 90.4389 12.499C90.3216 12.6516 90.2629 12.8923 90.2629 13.2209C90.2629 13.5496 90.3333 13.7844 90.4742 13.9252C90.615 14.0661 90.8263 14.1365 91.108 14.1365Z" fill="white"/>
<path d="M99.8476 15.6507V7.76275H101.291L101.96 8.11489C102.266 7.95056 102.594 7.82144 102.946 7.72754C103.299 7.63363 103.745 7.58668 104.285 7.58668C105.141 7.58668 105.834 7.68058 106.362 7.86839C106.902 8.0562 107.26 8.19706 107.436 8.29096L106.82 9.82277C106.679 9.75234 106.444 9.66431 106.116 9.55867C105.799 9.44129 105.423 9.33564 104.989 9.24174C104.555 9.14784 104.079 9.10088 103.563 9.10088H103.369C102.806 9.10088 102.436 9.2124 102.26 9.43542C102.095 9.65844 102.007 10.0282 101.996 10.5447V15.6507H99.8476Z" fill="white"/>
<path d="M110.816 15.6507C110.229 15.6507 109.778 15.5744 109.461 15.4218C109.144 15.2692 108.915 15.0755 108.774 14.8408C108.645 14.606 108.563 14.3595 108.527 14.1013C108.504 13.843 108.492 13.6083 108.492 13.397V10.0164C108.492 9.84038 108.504 9.62909 108.527 9.3826C108.563 9.12436 108.645 8.87199 108.774 8.62549C108.915 8.379 109.144 8.17358 109.461 8.00925C109.789 7.84492 110.241 7.76275 110.816 7.76275H111.714C112.794 7.76275 113.663 7.78623 114.32 7.83318C114.989 7.86839 115.5 7.90947 115.852 7.95643V4.48784H118V15.6507H116.556L115.87 15.2986C115.377 15.3807 114.784 15.4629 114.091 15.5451C113.399 15.6155 112.601 15.6507 111.697 15.6507H110.816ZM111.485 14.1365H115.306C115.553 14.1365 115.705 14.1071 115.764 14.0485C115.823 13.9898 115.852 13.843 115.852 13.6083V9.4002C115.453 9.37673 114.948 9.35325 114.338 9.32977C113.727 9.29456 113.076 9.27695 112.383 9.27695H111.485C110.922 9.27695 110.64 9.51171 110.64 9.98123V13.4322C110.64 13.9017 110.922 14.1365 111.485 14.1365Z" fill="white"/>
<path d="M2.70791 1.00766H26.5084V19.6017H2.70791C1.9619 19.6017 1.28464 19.2977 0.794429 18.808C0.304216 18.3183 0 17.6417 0 16.8965V3.71287C0 2.96761 0.304216 2.29103 0.794429 1.8013C1.28464 1.31157 1.9619 1.00766 2.70791 1.00766ZM24.0254 3.48821H2.70791C2.64728 3.48821 2.59133 3.51381 2.54998 3.55511C2.50872 3.59634 2.48302 3.6523 2.48302 3.71287V16.8965C2.48302 16.957 2.50864 17.013 2.54998 17.0542C2.59133 17.0955 2.64735 17.1211 2.70791 17.1211H24.0254V3.48814V3.48821Z" fill="white"/>
<path d="M11.4725 4.72833H3.87298C3.71102 4.72833 3.57971 4.8595 3.57971 5.02131V6.52828C3.57971 6.69009 3.71102 6.82126 3.87298 6.82126H11.4725C11.6345 6.82126 11.7658 6.69009 11.7658 6.52828V5.02131C11.7658 4.8595 11.6345 4.72833 11.4725 4.72833Z" fill="white"/>
<path d="M33.4529 1.00766H24.0254V3.48821H33.4529V1.00766Z" fill="white"/>
<path d="M29.8059 9.06442H24.0254V11.545H29.8059V9.06442Z" fill="white"/>
<path d="M33.4529 17.1212H24.0254V19.6017H33.4529V17.1212Z" fill="white"/>
<path d="M35.7031 0H31.2027V4.49594H35.7031V0Z" fill="white"/>
<path d="M32.0561 8.05676H27.5557V12.5527H32.0561V8.05676Z" fill="white"/>
<path d="M35.7031 16.1135H31.2027V20.6094H35.7031V16.1135Z" fill="white"/>
</svg>
